<?xml version="1.0" encoding="utf-8"?>
<!-- Generator: Adobe Illustrator 25.0.0, SVG Export Plug-In . SVG Version: 6.00 Build 0)  -->
<svg version="1.1" id="Camada_1" xmlns="http://www.w3.org/2000/svg" xmlns:xlink="http://www.w3.org/1999/xlink" x="0px" y="0px"
	 viewBox="0 0 1000 1000" style="enable-background:new 0 0 1000 1000;" xml:space="preserve">
<style type="text/css">
	.st0{fill:#3E8C78;}
	.st1{fill:url(#Retângulo_2-3_2_);}
	.st2{fill:url(#Retângulo_2-4_1_);}
	.st3{fill:url(#Retângulo_2-5_1_);}
	.st4{fill:url(#SVGID_1_);}
</style>
<path id="Retângulo_2_1_" class="st0" d="M275.9,241.8h176.8c3.9,0,7.1,3.2,7.1,7.1v65.7c0,3.9-3.2,7.1-7.1,7.1H275.9
	c-3.9,0-7.1-3.2-7.1-7.1v-65.7C269,244.9,272.2,241.8,275.9,241.8z"/>
<path id="Retângulo_2-2_1_" class="st0" d="M276.1,500.3h178.1c3.9,0,7.1,3.2,7.1,7.1v65.7c0,3.9-3.2,7.1-7.1,7.1H276.1
	c-3.9,0-7.1-3.2-7.1-7.1v-65.7C269,503.4,272.2,500.3,276.1,500.3z"/>
<linearGradient id="Retângulo_2-3_2_" gradientUnits="userSpaceOnUse" x1="365.4489" y1="728.1" x2="365.4489" y2="561.6" gradientTransform="matrix(1 0 0 1 0 -234)">
	<stop  offset="0" style="stop-color:#388D82"/>
	<stop  offset="1" style="stop-color:#295F5B"/>
</linearGradient>
<path id="Retângulo_2-3_1_" class="st1" d="M336.1,327.6h58.7c3.9,0,7.1,3.2,7.1,7.1V487c0,3.9-3.2,7.1-7.1,7.1h-58.7
	c-3.9,0-7.1-3.2-7.1-7.1V334.6C328.9,330.7,332.2,327.6,336.1,327.6z"/>
<linearGradient id="Retângulo_2-4_1_" gradientUnits="userSpaceOnUse" x1="342.9181" y1="483.9182" x2="386.631" y2="440.2058" gradientTransform="matrix(1 0 0 1 0 -234)">
	<stop  offset="0" style="stop-color:#388D82"/>
	<stop  offset="1" style="stop-color:#295F5B"/>
</linearGradient>
<path id="Retângulo_2-4_2_" class="st2" d="M335.4,216.5H394c3.9,0,7.1,3.2,7.1,7.1v11.9l0,0h-72.6l0,0v-11.9
	C328.5,219.7,331.5,216.5,335.4,216.5z"/>
<linearGradient id="Retângulo_2-5_1_" gradientUnits="userSpaceOnUse" x1="344.2709" y1="849.5417" x2="387.9902" y2="805.8221" gradientTransform="matrix(1 0 0 1 0 -234)">
	<stop  offset="0" style="stop-color:#388D82"/>
	<stop  offset="1" style="stop-color:#295F5B"/>
</linearGradient>
<path id="Retângulo_2-5_2_" class="st3" d="M329.8,586.3h72.6l0,0v11.9c0,3.9-3.2,7.1-7.1,7.1h-58.7c-3.9,0-7.1-3.2-7.1-7.1
	L329.8,586.3L329.8,586.3z"/>
<path id="Retângulo_1-2_1_" class="st0" d="M503.4,241.8h235.5c3.7,0,6.7,3.2,6.7,7.1v65.7c0,3.9-3.2,7.1-6.7,7.1H503.4
	c-3.7,0-6.7-3.2-6.7-7.1v-65.7C496.7,244.9,499.7,241.8,503.4,241.8z"/>
<path id="Retângulo_1-3_1_" class="st0" d="M504.9,500.3h235.5c3.7,0,6.7,3.2,6.7,7.1v65.7c0,3.9-3.2,7.1-6.7,7.1H504.9
	c-3.7,0-6.7-3.2-6.7-7.1v-65.7C497.9,503.4,501,500.3,504.9,500.3z"/>
<linearGradient id="SVGID_1_" gradientUnits="userSpaceOnUse" x1="522.5857" y1="744.6511" x2="722.2568" y2="544.9801" gradientTransform="matrix(1 0 0 1 0 -234)">
	<stop  offset="0" style="stop-color:#388D82"/>
	<stop  offset="1" style="stop-color:#295F5B"/>
</linearGradient>
<path class="st4" d="M642.7,328.1h95.8c1.7,0,2.8,2,1.7,3.3L607.4,491c-1.3,1.7-3.3,2.6-5.4,2.6h-95.5c-1.9,0-2.8-2-1.7-3.3
	l132.4-159.5C638.8,329.1,640.7,328.1,642.7,328.1z"/>
<g>
	<path class="st0" d="M269,663.4V649c0-1.5,1.1-2.7,2.5-2.7h85c2.3,0,3.4,3.1,1.6,4.7L343,665.5c-0.5,0.4-1,0.7-1.6,0.7h-69.8
		C270.2,666.1,269,664.9,269,663.4z M321.4,678.7v83.5c0,1.5-1.1,2.7-2.5,2.7H303c-1.4,0-2.5-1.2-2.5-2.7v-83.5
		c0-1.5,1.1-2.7,2.5-2.7h15.9C320.2,676,321.4,677.2,321.4,678.7z"/>
	<path class="st0" d="M393.9,763.2L393.9,763.2c-1.9,1.8-20.8,2.9-20.8,0.1L373,649.5c0-1.9,1.4-3.4,3.1-3.4h14.7
		c1.7,0,3.1,1.5,3.1,3.4V702c0,1.9,1.4,3.4,3.1,3.4h28.3c5.8,0,10.7-1.9,14.8-5.8c4.1-3.9,6.1-8.5,6.1-14s-2-10.1-6.1-14
		s-9-5.8-14.8-5.8h-17.8c-1.7,0-3.1-1.5-3.1-3.4v-13c0-1.9,1.4-3.4,3.1-3.4h17.8c11.6,0,21.4,3.9,29.6,11.6
		c8.2,7.7,12.3,17,12.3,27.9s-4.1,20.2-12.3,27.9c-4.2,3.9-8.8,6.9-13.8,8.8c-2.1,0.8-2.7,3.8-1.2,5.5l27.5,31.1
		c1.9,2.1,0.5,5.7-2.3,5.7h-17.5c-0.9,0-1.7-0.4-2.3-1l-33.1-37.4c-0.6-0.7-1.4-1-2.3-1H397c-1.7,0-3.1,1.5-3.1,3.4"/>
	<path class="st0" d="M502,764.9h-17.8c-1.9,0-3.1-2.2-2.2-4l58.6-115.2c0.9-1.9,3.4-1.9,4.4,0l58.6,115.2c0.9,1.8-0.3,4-2.2,4
		h-17.8c-0.9,0-1.8-0.6-2.2-1.5l-8.1-16.8c-0.4-0.9-1.3-1.5-2.2-1.5h-42.3c-1.9,0-3.1-2.1-2.2-3.9l7-14.4c0.4-0.9,1.3-1.4,2.2-1.4
		h23.1c1.9,0,3.1-2.1,2.2-3.9L545,688c-0.9-1.9-3.5-1.9-4.4,0l-36.3,75.4C503.8,764.3,503,764.9,502,764.9z"/>
	<path class="st0" d="M635.5,764.9h-15.2c-1.6,0-2.9-1.4-2.9-3.1V649.4c0-1.7,1.3-3.1,2.9-3.1h15.2c1.6,0,2.9,1.4,2.9,3.1v112.4
		C638.3,763.5,637,764.9,635.5,764.9z"/>
	<path class="st0" d="M747.1,741.8v20.3c0,3-3.4,4.6-5.4,2.5l-62.4-65.3c-2-2.1-5.4-0.6-5.4,2.5v60.1c0,1.9-1.4,3.4-3.2,3.4h-14.6
		c-1.8,0-3.2-1.5-3.2-3.4v-112c0-3,3.4-4.6,5.4-2.5l67.8,70.9v-0.2l20,21.3C746.8,740,747.1,740.9,747.1,741.8z M726.2,702.7v-51.6
		c0-1.9,1.4-3.4,3.2-3.4H744c1.8,0,3.2,1.5,3.2,3.4v67.1c0,3-3.4,4.6-5.4,2.4l-14.6-15.5C726.5,704.5,726.2,703.6,726.2,702.7z"/>
</g>
</svg>
